<svg width="100" height="100" viewBox="0 0 100 100" fill="none" xmlns="http://www.w3.org/2000/svg">
<path fill-rule="evenodd" clip-rule="evenodd" d="M50 6.25C31.0281 6.25 15.625 21.6531 15.625 40.625C15.625 49.3063 20.7938 59.6281 27.1844 68.8094C36.3688 82.0094 47.85 92.8937 47.85 92.8937C49.0563 94.0344 50.9437 94.0344 52.15 92.8937C52.15 92.8937 63.6313 82.0094 72.8156 68.8094C79.2063 59.6281 84.375 49.3063 84.375 40.625C84.375 21.6531 68.9719 6.25 50 6.25ZM50 23.4375C40.5125 23.4375 32.8125 31.1375 32.8125 40.625C32.8125 50.1125 40.5125 57.8125 50 57.8125C59.4875 57.8125 67.1875 50.1125 67.1875 40.625C67.1875 31.1375 59.4875 23.4375 50 23.4375ZM50 29.6875C56.0375 29.6875 60.9375 34.5875 60.9375 40.625C60.9375 46.6625 56.0375 51.5625 50 51.5625C43.9625 51.5625 39.0625 46.6625 39.0625 40.625C39.0625 34.5875 43.9625 29.6875 50 29.6875Z" fill="#0E6FFF"/>
</svg>
