<svg width="50" height="50" viewBox="0 0 50 50" fill="none" xmlns="http://www.w3.org/2000/svg">
<path d="M48.3594 19.2344C48.1563 19.875 47.5469 20.3125 46.875 20.3125H42.1875V46.875C42.1875 47.7344 41.4844 48.4375 40.625 48.4375H9.37502C8.51564 48.4375 7.81252 47.7344 7.81252 46.875V20.3125H3.12502C2.45314 20.3125 1.84377 19.875 1.64064 19.2344C1.43752 18.5781 1.65627 17.875 2.21877 17.4844L24.0938 1.85938C24.6406 1.46875 25.3594 1.46875 25.9063 1.85938L47.7813 17.4844C48.3281 17.875 48.5625 18.5781 48.3594 19.2344Z" fill="#0E6FFF"/>
<path d="M35.9375 22.7656C35.9375 23.4375 35.8125 39.0625 25 39.0625C14.1875 39.0625 14.0625 23.4375 14.0625 22.7656C14.0625 22.1406 14.4375 21.5781 15.0156 21.3281L24.3906 17.3125C24.7812 17.1406 25.2187 17.1406 25.6094 17.3125L34.9844 21.3281C35.5625 21.5781 35.9375 22.1406 35.9375 22.7656Z" fill="#FB6028"/>
</svg>
