<svg width="80" height="80" viewBox="0 0 80 80" fill="none" xmlns="http://www.w3.org/2000/svg">
<path d="M77.375 30.775C77.05 31.8 76.075 32.5 75 32.5H67.5V75C67.5 76.375 66.375 77.5 65 77.5H15C13.625 77.5 12.5 76.375 12.5 75V32.5H5.00003C3.92503 32.5 2.95003 31.8 2.62503 30.775C2.30003 29.725 2.65003 28.6 3.55003 27.975L38.55 2.97501C39.425 2.35001 40.575 2.35001 41.45 2.97501L76.45 27.975C77.325 28.6 77.7 29.725 77.375 30.775Z" fill="#0E6FFF"/>
<path d="M57.5 36.425C57.5 37.5 57.3 62.5 40 62.5C22.7 62.5 22.5 37.5 22.5 36.425C22.5 35.425 23.1 34.525 24.025 34.125L39.025 27.7C39.65 27.425 40.35 27.425 40.975 27.7L55.975 34.125C56.9 34.525 57.5 35.425 57.5 36.425Z" fill="#FB6028"/>
</svg>
