<svg width="100" height="100" viewBox="0 0 100 100" fill="none" xmlns="http://www.w3.org/2000/svg">
<path d="M68.9841 53.776L67.0862 55.6626C67.0862 55.6626 62.5754 60.1481 50.2629 47.9051C37.9505 35.6627 42.4612 31.1775 42.4612 31.1775L43.6562 29.9892C46.6004 27.062 46.8779 22.3623 44.3091 18.9313L39.0552 11.913C35.8761 7.66648 29.7331 7.10552 26.0893 10.7286L19.5493 17.2315C17.7426 19.028 16.5318 21.3568 16.6787 23.9402C17.0543 30.5494 20.0446 44.7697 36.7306 61.361C54.4254 78.9551 71.0283 79.6543 77.8179 79.0214C79.9654 78.8214 81.8329 77.7276 83.3379 76.231L89.257 70.346C93.2524 66.3731 92.1258 59.5622 87.0137 56.7835L79.0533 52.456C75.6966 50.6314 71.6074 51.1672 68.9841 53.776Z" fill="#0E6FFF"/>
</svg>
